<svg xmlns="http://www.w3.org/2000/svg" viewBox="0 0 425.2 85.04"><defs><style>.cls-1{fill:#1d1d1b;}</style></defs><g id="Ebene_2" data-name="Ebene 2"><g id="Logo"><g id="logo-2" data-name="logo"><path class="cls-1" d="M17,59.1a15,15,0,0,0,7.22-1.47,4.84,4.84,0,0,0,2.66-4.52,4.94,4.94,0,0,0-1.71-3.94,28,28,0,0,0-6-3.47A44.83,44.83,0,0,1,15,43.52a15,15,0,0,1-3.38-2.66,11.85,11.85,0,0,1-2.28-3.57,12.62,12.62,0,0,1-.85-4.89,14.34,14.34,0,0,1,5.41-11.78q5.42-4.36,15.68-4.37a32.88,32.88,0,0,1,8.5,1,25.89,25.89,0,0,1,5.66,2l-4.09,8.93A21.94,21.94,0,0,0,35,26.37a22.34,22.34,0,0,0-6.37-.91,17.66,17.66,0,0,0-3.18.29,9.59,9.59,0,0,0-2.81.95,5.73,5.73,0,0,0-2,1.85,5,5,0,0,0-.81,2.9A4.31,4.31,0,0,0,21.52,35a25.77,25.77,0,0,0,5.08,2.9,50.57,50.57,0,0,1,5.33,2.76,14.84,14.84,0,0,1,3.61,3,10.84,10.84,0,0,1,2.09,3.71,16,16,0,0,1,.66,4.89,15,15,0,0,1-1.42,6.51,14.38,14.38,0,0,1-4.14,5.13A20.45,20.45,0,0,1,26,67.27a31,31,0,0,1-9.12,1.24A37.72,37.72,0,0,1,10.59,68,43.86,43.86,0,0,1,5.7,66.94a25.87,25.87,0,0,1-3.51-1.28Q.77,65,0,64.52l4.09-9c.44.25,1.09.59,1.94,1a27.83,27.83,0,0,0,3,1.18,30.25,30.25,0,0,0,3.7,1A20.85,20.85,0,0,0,17,59.1Z"/><path class="cls-1" d="M46.56,48.36a37,37,0,0,1,2-12.3A31.42,31.42,0,0,1,54.44,25.8a27.36,27.36,0,0,1,9.31-7A29.44,29.44,0,0,1,76.3,16.25a34,34,0,0,1,6.79.62,27.26,27.26,0,0,1,5.84,1.85l-4.08,9.21a27.59,27.59,0,0,0-3.8-1.33A19.85,19.85,0,0,0,75.92,26a16.05,16.05,0,0,0-7.37,1.67A16.79,16.79,0,0,0,63,32.21,20.6,20.6,0,0,0,59.48,39a26.94,26.94,0,0,0-1.24,8.26,18.2,18.2,0,0,0,.53,4.52,9.8,9.8,0,0,0,1.71,3.61,7.64,7.64,0,0,0,3.27,2.42,13.93,13.93,0,0,0,5.23.85,22.51,22.51,0,0,0,6.22-.85,24.81,24.81,0,0,0,4.61-1.71l1,9.41a37.55,37.55,0,0,1-5.79,2,31,31,0,0,1-8.18,1,23.66,23.66,0,0,1-9-1.57,17.67,17.67,0,0,1-6.32-4.28,16.89,16.89,0,0,1-3.71-6.36A25.66,25.66,0,0,1,46.56,48.36Z"/><path class="cls-1" d="M130.46,47.89a26.75,26.75,0,0,0-.57,3.42,37.55,37.55,0,0,0-.29,4.46,29.63,29.63,0,0,0,.48,5.37,27.52,27.52,0,0,0,1.52,5.28l-10.26,1.52a24.46,24.46,0,0,1-1.81-4.85,25.21,25.21,0,0,1-5.84,3.75,17.93,17.93,0,0,1-7.84,1.67A18.12,18.12,0,0,1,98.2,67,13.55,13.55,0,0,1,93,63a17.64,17.64,0,0,1-3-6.13,29.19,29.19,0,0,1-.95-7.6A33.45,33.45,0,0,1,91.6,36.3a31,31,0,0,1,6.88-10.36A32.52,32.52,0,0,1,109,19.05a34.45,34.45,0,0,1,13.31-2.52,46,46,0,0,1,7.45.62,30.4,30.4,0,0,1,7.56,2.33Zm-6.25-21.48a20.26,20.26,0,0,0-4.09-.38,17,17,0,0,0-7.9,1.86A20.07,20.07,0,0,0,106,32.83a22.7,22.7,0,0,0-4,7.08,24.68,24.68,0,0,0-1.42,8.36,20.21,20.21,0,0,0,.38,4.08,9.68,9.68,0,0,0,1.28,3.33A6.71,6.71,0,0,0,104.61,58a7.91,7.91,0,0,0,3.9.85,10.93,10.93,0,0,0,5.37-1.28,16.79,16.79,0,0,0,4.32-3.47,39.12,39.12,0,0,1,.43-4.65,42.37,42.37,0,0,1,.9-4.37Z"/><path class="cls-1" d="M151.46,19.57q3.79-1.14,8.69-2.13a53.14,53.14,0,0,1,10.69-1q8.74,0,12.83,4.27t4.08,11.5a29,29,0,0,1-.33,4.23c-.22,1.49-.49,3-.81,4.61l-6.27,26.13H168.86l5.87-24.9c.32-1.39.64-2.82,1-4.27a24.74,24.74,0,0,0,.57-4.18,8.46,8.46,0,0,0-1.56-5.52q-1.66-2.18-6.51-2.18a25.38,25.38,0,0,0-7,.85l-9.53,40.2H140.05Z"/><path class="cls-1" d="M236.4,60.91a45.93,45.93,0,0,1-3.75,10.68,24.87,24.87,0,0,1-5.8,7.51,22.63,22.63,0,0,1-8.31,4.47A39.09,39.09,0,0,1,207.23,85,40,40,0,0,1,197.16,84a41.72,41.72,0,0,1-7.41-2.71L194.5,70a50.69,50.69,0,0,0,6.12,2.28,28,28,0,0,0,7.84,1c4.06,0,7.11-.91,9.17-2.71a12.65,12.65,0,0,0,4-7l.38-1.81a21.44,21.44,0,0,1-4,1.52,17.42,17.42,0,0,1-4.51.57,19.55,19.55,0,0,1-7.7-1.38,13.54,13.54,0,0,1-5.27-3.85,16.17,16.17,0,0,1-3-5.84,25.68,25.68,0,0,1-1-7.36,29.28,29.28,0,0,1,2.66-12.78,27.39,27.39,0,0,1,7.08-9.27,30.62,30.62,0,0,1,10.17-5.6,38,38,0,0,1,12-1.9,43.38,43.38,0,0,1,9,1,40.6,40.6,0,0,1,8.75,2.94Zm-6.27-32.79a18,18,0,0,0-4-.38A15.49,15.49,0,0,0,219.68,29a15,15,0,0,0-4.9,3.47,14.69,14.69,0,0,0-3.13,5.27,19.62,19.62,0,0,0-1.1,6.6,16.89,16.89,0,0,0,.29,3.19,6.74,6.74,0,0,0,1,2.56A5.49,5.49,0,0,0,214,51.88a7.48,7.48,0,0,0,3.33.66,17.73,17.73,0,0,0,3.56-.47,8.35,8.35,0,0,0,4-2.19Z"/><path class="cls-1" d="M269.75,68.51A23,23,0,0,1,261,67a16.21,16.21,0,0,1-6.13-4.28,18.31,18.31,0,0,1-3.66-6.51A26.55,26.55,0,0,1,250,47.89a36.56,36.56,0,0,1,1.86-11.4,32.61,32.61,0,0,1,5.46-10.27,29.13,29.13,0,0,1,8.84-7.45,24.16,24.16,0,0,1,12-2.9,23.09,23.09,0,0,1,8.69,1.52A16.22,16.22,0,0,1,293,21.66a18.71,18.71,0,0,1,3.66,6.51,26.66,26.66,0,0,1,1.23,8.32,37.68,37.68,0,0,1-1.8,11.4,33.16,33.16,0,0,1-5.32,10.26A28,28,0,0,1,282,65.61,25,25,0,0,1,269.75,68.51Zm7-40.67a8.86,8.86,0,0,0-5.51,1.8,15.37,15.37,0,0,0-4,4.57,22.29,22.29,0,0,0-2.43,6,26.41,26.41,0,0,0-.8,6.22c0,3.23.5,5.72,1.52,7.46s2.85,2.61,5.51,2.61a8.88,8.88,0,0,0,5.51-1.8,15.49,15.49,0,0,0,4-4.56,22.53,22.53,0,0,0,2.42-6,26,26,0,0,0,.81-6.23,15.05,15.05,0,0,0-1.52-7.46Q280.77,27.84,276.78,27.84Z"/><path class="cls-1" d="M303.53,68a4.08,4.08,0,0,1-2.92-1,3.81,3.81,0,0,1-1.07-2.92,4.68,4.68,0,0,1,4.73-5,4.15,4.15,0,0,1,3,1,4,4,0,0,1,1.09,3,4.54,4.54,0,0,1-.43,2,5.08,5.08,0,0,1-1.1,1.53,4.38,4.38,0,0,1-1.53,1A4.78,4.78,0,0,1,303.53,68Z"/><path class="cls-1" d="M316,54.81a28,28,0,0,1,1.36-8.72,22,22,0,0,1,4-7.38,19.27,19.27,0,0,1,15.36-7A29.64,29.64,0,0,1,341,32a13.14,13.14,0,0,1,3.79,1.17l-2.33,5.19a9.35,9.35,0,0,0-2.49-.93,16.3,16.3,0,0,0-3.69-.34,12,12,0,0,0-5.86,1.43A14.36,14.36,0,0,0,326,42.33a17.18,17.18,0,0,0-2.79,5.46,21.2,21.2,0,0,0-1,6.42,13.68,13.68,0,0,0,.37,3.26,6.62,6.62,0,0,0,1.3,2.69A6.18,6.18,0,0,0,326.38,62a10.23,10.23,0,0,0,4,.66,14.05,14.05,0,0,0,2.52-.23,22,22,0,0,0,2.47-.56c.75-.23,1.43-.46,2-.7a5.28,5.28,0,0,0,1.3-.7l.53,5.25a16,16,0,0,1-3.92,1.57,21.9,21.9,0,0,1-6.05.76,15.51,15.51,0,0,1-5.66-1,11.22,11.22,0,0,1-4.12-2.73,11.76,11.76,0,0,1-2.53-4.19A16,16,0,0,1,316,54.81Z"/><path class="cls-1" d="M344.44,67.18l12.17-50.55,6.45-1.07-4.26,17.5a22.8,22.8,0,0,1,3.23-.87,17.86,17.86,0,0,1,3.42-.33,14.46,14.46,0,0,1,5.16.83A9.3,9.3,0,0,1,374.1,35a8.88,8.88,0,0,1,2,3.46,14.85,14.85,0,0,1,.63,4.42,27.71,27.71,0,0,1-.93,6.65l-4.25,17.7h-6.19l3.93-16.37c.31-1.24.6-2.5.89-3.79a16.57,16.57,0,0,0,.44-3.65,6.69,6.69,0,0,0-1.47-4.43q-1.46-1.75-5.45-1.76a18.81,18.81,0,0,0-3.29.3,11.53,11.53,0,0,0-2.83.83l-6.92,28.87Z"/><polygon class="cls-1" points="399.72 31.26 396.85 31.51 399.36 2.28 402.23 2.03 399.72 31.26"/><polygon class="cls-1" points="404.96 36.6 402.09 36.85 405.1 1.78 407.97 1.52 404.96 36.6"/><polygon class="cls-1" points="411.2 30.24 408.33 30.5 410.84 1.27 413.71 1.01 411.2 30.24"/><polygon class="cls-1" points="416.44 35.58 413.57 35.84 416.58 0.76 419.46 0.51 416.44 35.58"/><polygon class="cls-1" points="422.69 29.23 419.81 29.48 422.33 0.25 425.2 0 422.69 29.23"/></g></g></g></svg>